<mxfile host="app.diagrams.net" modified="2023-02-16T08:11:39.645Z" agent="5.0 (Windows NT 10.0; Win64; x64) AppleWebKit/537.36 (KHTML, like Gecko) Chrome/110.0.0.0 Safari/537.36 Edg/110.0.1587.41" etag="R67-b-fKOrm6y9zXIeYp" version="20.8.20" type="github">
  <diagram name="Page-1" id="uPIy2GO2GMbN6UUn8LPM">
    <mxGraphModel dx="1207" dy="694" grid="1" gridSize="10" guides="1" tooltips="1" connect="1" arrows="1" fold="1" page="1" pageScale="1" pageWidth="850" pageHeight="1100" math="0" shadow="0">
      <root>
        <mxCell id="0" />
        <mxCell id="1" parent="0" />
        <mxCell id="FOynk3iMOM0ovVsAVj1G-1" value="&lt;p style=&quot;margin:0px;margin-top:4px;text-align:center;&quot;&gt;&lt;br&gt;&lt;b&gt;APIViews&lt;/b&gt;&lt;/p&gt;" style="verticalAlign=top;align=left;overflow=fill;fontSize=12;fontFamily=Helvetica;html=1;" vertex="1" parent="1">
          <mxGeometry x="355" y="140" width="140" height="50" as="geometry" />
        </mxCell>
        <mxCell id="FOynk3iMOM0ovVsAVj1G-2" value="&lt;p style=&quot;margin:0px;margin-top:4px;text-align:center;&quot;&gt;&lt;br&gt;&lt;b&gt;REST Framework Views&lt;/b&gt;&lt;/p&gt;" style="verticalAlign=top;align=left;overflow=fill;fontSize=12;fontFamily=Helvetica;html=1;" vertex="1" parent="1">
          <mxGeometry x="335" y="10" width="180" height="60" as="geometry" />
        </mxCell>
        <mxCell id="FOynk3iMOM0ovVsAVj1G-7" value="" style="endArrow=diamondThin;endFill=1;endSize=24;html=1;rounded=0;" edge="1" parent="1" source="FOynk3iMOM0ovVsAVj1G-1" target="FOynk3iMOM0ovVsAVj1G-2">
          <mxGeometry width="160" relative="1" as="geometry">
            <mxPoint x="130" y="150" as="sourcePoint" />
            <mxPoint x="290" y="150" as="targetPoint" />
          </mxGeometry>
        </mxCell>
        <mxCell id="FOynk3iMOM0ovVsAVj1G-8" value="SearchOnInternetViewSet" style="swimlane;fontStyle=1;align=center;verticalAlign=top;childLayout=stackLayout;horizontal=1;startSize=26;horizontalStack=0;resizeParent=1;resizeParentMax=0;resizeLast=0;collapsible=1;marginBottom=0;" vertex="1" parent="1">
          <mxGeometry x="80" y="240" width="280" height="138" as="geometry" />
        </mxCell>
        <mxCell id="FOynk3iMOM0ovVsAVj1G-9" value="- pipelines: MLRegistry" style="text;strokeColor=none;fillColor=none;align=left;verticalAlign=top;spacingLeft=4;spacingRight=4;overflow=hidden;rotatable=0;points=[[0,0.5],[1,0.5]];portConstraint=eastwest;" vertex="1" parent="FOynk3iMOM0ovVsAVj1G-8">
          <mxGeometry y="26" width="280" height="26" as="geometry" />
        </mxCell>
        <mxCell id="FOynk3iMOM0ovVsAVj1G-10" value="" style="line;strokeWidth=1;fillColor=none;align=left;verticalAlign=middle;spacingTop=-1;spacingLeft=3;spacingRight=3;rotatable=0;labelPosition=right;points=[];portConstraint=eastwest;strokeColor=inherit;" vertex="1" parent="FOynk3iMOM0ovVsAVj1G-8">
          <mxGeometry y="52" width="280" height="8" as="geometry" />
        </mxCell>
        <mxCell id="FOynk3iMOM0ovVsAVj1G-11" value="+ post(http request): http respone" style="text;strokeColor=none;fillColor=none;align=left;verticalAlign=top;spacingLeft=4;spacingRight=4;overflow=hidden;rotatable=0;points=[[0,0.5],[1,0.5]];portConstraint=eastwest;" vertex="1" parent="FOynk3iMOM0ovVsAVj1G-8">
          <mxGeometry y="60" width="280" height="26" as="geometry" />
        </mxCell>
        <mxCell id="FOynk3iMOM0ovVsAVj1G-17" value="- search_on_internet(Document): Document[]" style="text;strokeColor=none;fillColor=none;align=left;verticalAlign=top;spacingLeft=4;spacingRight=4;overflow=hidden;rotatable=0;points=[[0,0.5],[1,0.5]];portConstraint=eastwest;" vertex="1" parent="FOynk3iMOM0ovVsAVj1G-8">
          <mxGeometry y="86" width="280" height="26" as="geometry" />
        </mxCell>
        <mxCell id="FOynk3iMOM0ovVsAVj1G-28" value="- compute(Document, Document): Result" style="text;strokeColor=none;fillColor=none;align=left;verticalAlign=top;spacingLeft=4;spacingRight=4;overflow=hidden;rotatable=0;points=[[0,0.5],[1,0.5]];portConstraint=eastwest;" vertex="1" parent="FOynk3iMOM0ovVsAVj1G-8">
          <mxGeometry y="112" width="280" height="26" as="geometry" />
        </mxCell>
        <mxCell id="FOynk3iMOM0ovVsAVj1G-12" value="Extends" style="endArrow=block;endSize=16;endFill=0;html=1;rounded=0;entryX=0.5;entryY=1;entryDx=0;entryDy=0;" edge="1" parent="1" source="FOynk3iMOM0ovVsAVj1G-8" target="FOynk3iMOM0ovVsAVj1G-1">
          <mxGeometry width="160" relative="1" as="geometry">
            <mxPoint x="350" y="330" as="sourcePoint" />
            <mxPoint x="410" y="280" as="targetPoint" />
          </mxGeometry>
        </mxCell>
        <mxCell id="FOynk3iMOM0ovVsAVj1G-13" value="CompueCreateViewSet" style="swimlane;fontStyle=1;align=center;verticalAlign=top;childLayout=stackLayout;horizontal=1;startSize=26;horizontalStack=0;resizeParent=1;resizeParentMax=0;resizeLast=0;collapsible=1;marginBottom=0;" vertex="1" parent="1">
          <mxGeometry x="480" y="240" width="280" height="112" as="geometry" />
        </mxCell>
        <mxCell id="FOynk3iMOM0ovVsAVj1G-14" value="- pipelines: MLRegistry" style="text;strokeColor=none;fillColor=none;align=left;verticalAlign=top;spacingLeft=4;spacingRight=4;overflow=hidden;rotatable=0;points=[[0,0.5],[1,0.5]];portConstraint=eastwest;" vertex="1" parent="FOynk3iMOM0ovVsAVj1G-13">
          <mxGeometry y="26" width="280" height="26" as="geometry" />
        </mxCell>
        <mxCell id="FOynk3iMOM0ovVsAVj1G-15" value="" style="line;strokeWidth=1;fillColor=none;align=left;verticalAlign=middle;spacingTop=-1;spacingLeft=3;spacingRight=3;rotatable=0;labelPosition=right;points=[];portConstraint=eastwest;strokeColor=inherit;" vertex="1" parent="FOynk3iMOM0ovVsAVj1G-13">
          <mxGeometry y="52" width="280" height="8" as="geometry" />
        </mxCell>
        <mxCell id="FOynk3iMOM0ovVsAVj1G-16" value="+ post(http request): http respone" style="text;strokeColor=none;fillColor=none;align=left;verticalAlign=top;spacingLeft=4;spacingRight=4;overflow=hidden;rotatable=0;points=[[0,0.5],[1,0.5]];portConstraint=eastwest;" vertex="1" parent="FOynk3iMOM0ovVsAVj1G-13">
          <mxGeometry y="60" width="280" height="26" as="geometry" />
        </mxCell>
        <mxCell id="FOynk3iMOM0ovVsAVj1G-34" value="- compute(Document, Document): Result" style="text;strokeColor=none;fillColor=none;align=left;verticalAlign=top;spacingLeft=4;spacingRight=4;overflow=hidden;rotatable=0;points=[[0,0.5],[1,0.5]];portConstraint=eastwest;" vertex="1" parent="FOynk3iMOM0ovVsAVj1G-13">
          <mxGeometry y="86" width="280" height="26" as="geometry" />
        </mxCell>
        <mxCell id="FOynk3iMOM0ovVsAVj1G-24" value="Document" style="swimlane;fontStyle=1;childLayout=stackLayout;horizontal=1;startSize=26;fillColor=none;horizontalStack=0;resizeParent=1;resizeParentMax=0;resizeLast=0;collapsible=1;marginBottom=0;" vertex="1" parent="1">
          <mxGeometry x="320" y="450" width="140" height="78" as="geometry" />
        </mxCell>
        <mxCell id="FOynk3iMOM0ovVsAVj1G-25" value="+ path: string" style="text;strokeColor=none;fillColor=none;align=left;verticalAlign=top;spacingLeft=4;spacingRight=4;overflow=hidden;rotatable=0;points=[[0,0.5],[1,0.5]];portConstraint=eastwest;" vertex="1" parent="FOynk3iMOM0ovVsAVj1G-24">
          <mxGeometry y="26" width="140" height="26" as="geometry" />
        </mxCell>
        <mxCell id="FOynk3iMOM0ovVsAVj1G-26" value="+ url: string" style="text;strokeColor=none;fillColor=none;align=left;verticalAlign=top;spacingLeft=4;spacingRight=4;overflow=hidden;rotatable=0;points=[[0,0.5],[1,0.5]];portConstraint=eastwest;" vertex="1" parent="FOynk3iMOM0ovVsAVj1G-24">
          <mxGeometry y="52" width="140" height="26" as="geometry" />
        </mxCell>
        <mxCell id="FOynk3iMOM0ovVsAVj1G-29" value="Result" style="swimlane;fontStyle=1;childLayout=stackLayout;horizontal=1;startSize=26;fillColor=none;horizontalStack=0;resizeParent=1;resizeParentMax=0;resizeLast=0;collapsible=1;marginBottom=0;" vertex="1" parent="1">
          <mxGeometry x="515" y="424" width="140" height="104" as="geometry" />
        </mxCell>
        <mxCell id="FOynk3iMOM0ovVsAVj1G-30" value="+ score: float" style="text;strokeColor=none;fillColor=none;align=left;verticalAlign=top;spacingLeft=4;spacingRight=4;overflow=hidden;rotatable=0;points=[[0,0.5],[1,0.5]];portConstraint=eastwest;" vertex="1" parent="FOynk3iMOM0ovVsAVj1G-29">
          <mxGeometry y="26" width="140" height="26" as="geometry" />
        </mxCell>
        <mxCell id="FOynk3iMOM0ovVsAVj1G-31" value="+ cosine_matrix: float[][]" style="text;strokeColor=none;fillColor=none;align=left;verticalAlign=top;spacingLeft=4;spacingRight=4;overflow=hidden;rotatable=0;points=[[0,0.5],[1,0.5]];portConstraint=eastwest;" vertex="1" parent="FOynk3iMOM0ovVsAVj1G-29">
          <mxGeometry y="52" width="140" height="26" as="geometry" />
        </mxCell>
        <mxCell id="FOynk3iMOM0ovVsAVj1G-32" value="+ position: int[]" style="text;strokeColor=none;fillColor=none;align=left;verticalAlign=top;spacingLeft=4;spacingRight=4;overflow=hidden;rotatable=0;points=[[0,0.5],[1,0.5]];portConstraint=eastwest;" vertex="1" parent="FOynk3iMOM0ovVsAVj1G-29">
          <mxGeometry y="78" width="140" height="26" as="geometry" />
        </mxCell>
        <mxCell id="FOynk3iMOM0ovVsAVj1G-35" value="Extends" style="endArrow=block;endSize=16;endFill=0;html=1;rounded=0;" edge="1" parent="1" source="FOynk3iMOM0ovVsAVj1G-13" target="FOynk3iMOM0ovVsAVj1G-1">
          <mxGeometry width="160" relative="1" as="geometry">
            <mxPoint x="620" y="164" as="sourcePoint" />
            <mxPoint x="725" y="110" as="targetPoint" />
          </mxGeometry>
        </mxCell>
        <mxCell id="FOynk3iMOM0ovVsAVj1G-36" value="" style="endArrow=none;html=1;edgeStyle=orthogonalEdgeStyle;rounded=0;" edge="1" parent="1" source="FOynk3iMOM0ovVsAVj1G-24" target="FOynk3iMOM0ovVsAVj1G-8">
          <mxGeometry relative="1" as="geometry">
            <mxPoint x="355" y="560" as="sourcePoint" />
            <mxPoint x="515" y="560" as="targetPoint" />
          </mxGeometry>
        </mxCell>
        <mxCell id="FOynk3iMOM0ovVsAVj1G-39" value="" style="endArrow=none;html=1;edgeStyle=orthogonalEdgeStyle;rounded=0;" edge="1" parent="1" source="FOynk3iMOM0ovVsAVj1G-13" target="FOynk3iMOM0ovVsAVj1G-24">
          <mxGeometry relative="1" as="geometry">
            <mxPoint x="450" y="568" as="sourcePoint" />
            <mxPoint x="380" y="520" as="targetPoint" />
            <Array as="points">
              <mxPoint x="390" y="296" />
              <mxPoint x="390" y="465" />
            </Array>
          </mxGeometry>
        </mxCell>
        <mxCell id="FOynk3iMOM0ovVsAVj1G-40" value="" style="endArrow=none;html=1;edgeStyle=orthogonalEdgeStyle;rounded=0;" edge="1" parent="1" source="FOynk3iMOM0ovVsAVj1G-29" target="FOynk3iMOM0ovVsAVj1G-13">
          <mxGeometry relative="1" as="geometry">
            <mxPoint x="630" y="200" as="sourcePoint" />
            <mxPoint x="790" y="200" as="targetPoint" />
            <Array as="points">
              <mxPoint x="585" y="370" />
              <mxPoint x="620" y="370" />
            </Array>
          </mxGeometry>
        </mxCell>
        <mxCell id="FOynk3iMOM0ovVsAVj1G-43" value="" style="endArrow=none;html=1;edgeStyle=orthogonalEdgeStyle;rounded=0;" edge="1" parent="1" source="FOynk3iMOM0ovVsAVj1G-8" target="FOynk3iMOM0ovVsAVj1G-29">
          <mxGeometry relative="1" as="geometry">
            <mxPoint x="640" y="150" as="sourcePoint" />
            <mxPoint x="800" y="150" as="targetPoint" />
            <Array as="points">
              <mxPoint x="585" y="370" />
            </Array>
          </mxGeometry>
        </mxCell>
        <mxCell id="FOynk3iMOM0ovVsAVj1G-47" value="Views" style="shape=umlFrame;whiteSpace=wrap;html=1;pointerEvents=0;" vertex="1" parent="1">
          <mxGeometry width="840" height="560" as="geometry" />
        </mxCell>
      </root>
    </mxGraphModel>
  </diagram>
</mxfile>
